<?xml version="1.0" encoding="utf-8"?>
<svg contentScriptType="text/ecmascript" xmlns:xlink="http://www.w3.org/1999/xlink" zoomAndPan="magnify" contentStyleType="text/css" viewBox="17.0 12.666666666666657 1063.5959422728454 1703.6666666666642" xmlns:cacoo="http://cacoo.com/" preserveAspectRatio="xMidYMin meet" xmlns="http://www.w3.org/2000/svg" version="1.1"><defs><radialGradient xmlns:xlink="http://www.w3.org/1999/xlink" xlink:type="simple" r="75%" xlink:actuate="onLoad" cx="50%" id="id6" cy="50%" xlink:show="other"><stop stop-opacity="1.0" stop-color="#b4b4b4" offset="0%"/><stop stop-opacity="1.0" stop-color="#a0a0a0" offset="100%"/></radialGradient><radialGradient xmlns:xlink="http://www.w3.org/1999/xlink" xlink:type="simple" r="75%" xlink:actuate="onLoad" cx="50%" id="id7" cy="50%" xlink:show="other"><stop stop-opacity="1.0" stop-color="#b4b4b4" offset="0%"/><stop stop-opacity="1.0" stop-color="#a0a0a0" offset="100%"/></radialGradient><linearGradient x1="0%" xmlns:xlink="http://www.w3.org/1999/xlink" y1="0%" x2="0%" y2="100%" xlink:type="simple" xlink:actuate="onLoad" id="id8" xlink:show="other"><stop stop-opacity="1.0" stop-color="#eaeae9" offset="0%"/><stop stop-opacity="1.0" stop-color="#ffffff" offset="100%"/></linearGradient><radialGradient xmlns:xlink="http://www.w3.org/1999/xlink" xlink:type="simple" r="75%" xlink:actuate="onLoad" cx="50%" id="id9" cy="50%" xlink:show="other"><stop stop-opacity="1.0" stop-color="#b4b4b4" offset="0%"/><stop stop-opacity="1.0" stop-color="#a0a0a0" offset="100%"/></radialGradient><radialGradient xmlns:xlink="http://www.w3.org/1999/xlink" xlink:type="simple" r="75%" xlink:actuate="onLoad" cx="50%" id="id10" cy="50%" xlink:show="other"><stop stop-opacity="1.0" stop-color="#b4b4b4" offset="0%"/><stop stop-opacity="1.0" stop-color="#a0a0a0" offset="100%"/></radialGradient><radialGradient xmlns:xlink="http://www.w3.org/1999/xlink" xlink:type="simple" r="75%" xlink:actuate="onLoad" cx="50%" id="id11" cy="50%" xlink:show="other"><stop stop-opacity="1.0" stop-color="#fffff0" offset="0%"/><stop stop-opacity="1.0" stop-color="#ffd0a2" offset="100%"/></radialGradient><radialGradient xmlns:xlink="http://www.w3.org/1999/xlink" xlink:type="simple" r="75%" xlink:actuate="onLoad" cx="50%" id="id12" cy="50%" xlink:show="other"><stop stop-opacity="1.0" stop-color="#fffff0" offset="0%"/><stop stop-opacity="1.0" stop-color="#ffd0a2" offset="100%"/></radialGradient><radialGradient xmlns:xlink="http://www.w3.org/1999/xlink" xlink:type="simple" r="75%" xlink:actuate="onLoad" cx="50%" id="id13" cy="50%" xlink:show="other"><stop stop-opacity="1.0" stop-color="#fffff0" offset="0%"/><stop stop-opacity="1.0" stop-color="#ffd0a2" offset="100%"/></radialGradient><radialGradient xmlns:xlink="http://www.w3.org/1999/xlink" xlink:type="simple" r="75%" xlink:actuate="onLoad" cx="50%" id="id14" cy="50%" xlink:show="other"><stop stop-opacity="1.0" stop-color="#fffff0" offset="0%"/><stop stop-opacity="1.0" stop-color="#ffd0a2" offset="100%"/></radialGradient><radialGradient xmlns:xlink="http://www.w3.org/1999/xlink" xlink:type="simple" r="75%" xlink:actuate="onLoad" cx="50%" id="id15" cy="50%" xlink:show="other"><stop stop-opacity="1.0" stop-color="#ffffff" offset="0%"/><stop stop-opacity="1.0" stop-color="#dcdcdc" offset="100%"/></radialGradient><radialGradient xmlns:xlink="http://www.w3.org/1999/xlink" xlink:type="simple" r="75%" xlink:actuate="onLoad" cx="50%" id="id16" cy="50%" xlink:show="other"><stop stop-opacity="1.0" stop-color="#ffffff" offset="0%"/><stop stop-opacity="1.0" stop-color="#dcdcdc" offset="100%"/></radialGradient><radialGradient xmlns:xlink="http://www.w3.org/1999/xlink" xlink:type="simple" r="75%" xlink:actuate="onLoad" cx="50%" id="id17" cy="50%" xlink:show="other"><stop stop-opacity="1.0" stop-color="#fffff0" offset="0%"/><stop stop-opacity="1.0" stop-color="#ffd0a2" offset="100%"/></radialGradient><radialGradient xmlns:xlink="http://www.w3.org/1999/xlink" xlink:type="simple" r="75%" xlink:actuate="onLoad" cx="50%" id="id18" cy="50%" xlink:show="other"><stop stop-opacity="1.0" stop-color="#fffff0" offset="0%"/><stop stop-opacity="1.0" stop-color="#ffd0a2" offset="100%"/></radialGradient><radialGradient xmlns:xlink="http://www.w3.org/1999/xlink" xlink:type="simple" r="75%" xlink:actuate="onLoad" cx="50%" id="id19" cy="50%" xlink:show="other"><stop stop-opacity="1.0" stop-color="#fffff0" offset="0%"/><stop stop-opacity="1.0" stop-color="#ffd0a2" offset="100%"/></radialGradient><radialGradient xmlns:xlink="http://www.w3.org/1999/xlink" xlink:type="simple" r="75%" xlink:actuate="onLoad" cx="50%" id="id20" cy="50%" xlink:show="other"><stop stop-opacity="1.0" stop-color="#814003" offset="0%"/><stop stop-opacity="1.0" stop-color="#5d3509" offset="100%"/></radialGradient><radialGradient xmlns:xlink="http://www.w3.org/1999/xlink" xlink:type="simple" r="75%" xlink:actuate="onLoad" cx="50%" id="id21" cy="50%" xlink:show="other"><stop stop-opacity="1.0" stop-color="#9a6f03" offset="0%"/><stop stop-opacity="1.0" stop-color="#955b09" offset="100%"/></radialGradient><radialGradient xmlns:xlink="http://www.w3.org/1999/xlink" xlink:type="simple" r="75%" xlink:actuate="onLoad" cx="50%" id="id22" cy="50%" xlink:show="other"><stop stop-opacity="1.0" stop-color="#9a6f03" offset="0%"/><stop stop-opacity="1.0" stop-color="#955b09" offset="100%"/></radialGradient><radialGradient xmlns:xlink="http://www.w3.org/1999/xlink" xlink:type="simple" r="75%" xlink:actuate="onLoad" cx="50%" id="id23" cy="50%" xlink:show="other"><stop stop-opacity="1.0" stop-color="#ff8a8a" offset="0%"/><stop stop-opacity="1.0" stop-color="#ff518a" offset="100%"/></radialGradient><radialGradient xmlns:xlink="http://www.w3.org/1999/xlink" xlink:type="simple" r="75%" xlink:actuate="onLoad" cx="50%" id="id24" cy="50%" xlink:show="other"><stop stop-opacity="1.0" stop-color="#ffffff" offset="0%"/><stop stop-opacity="1.0" stop-color="#dcdcdc" offset="100%"/></radialGradient><radialGradient xmlns:xlink="http://www.w3.org/1999/xlink" xlink:type="simple" r="75%" xlink:actuate="onLoad" cx="50%" id="id25" cy="50%" xlink:show="other"><stop stop-opacity="1.0" stop-color="#ffffff" offset="0%"/><stop stop-opacity="1.0" stop-color="#dcdcdc" offset="100%"/></radialGradient><radialGradient xmlns:xlink="http://www.w3.org/1999/xlink" xlink:type="simple" r="75%" xlink:actuate="onLoad" cx="50%" id="id26" cy="50%" xlink:show="other"><stop stop-opacity="1.0" stop-color="#fffff0" offset="0%"/><stop stop-opacity="1.0" stop-color="#ffd0a2" offset="100%"/></radialGradient><radialGradient xmlns:xlink="http://www.w3.org/1999/xlink" xlink:type="simple" r="75%" xlink:actuate="onLoad" cx="50%" id="id27" cy="50%" xlink:show="other"><stop stop-opacity="1.0" stop-color="#fffff0" offset="0%"/><stop stop-opacity="1.0" stop-color="#ffd0a2" offset="100%"/></radialGradient><radialGradient xmlns:xlink="http://www.w3.org/1999/xlink" xlink:type="simple" r="75%" xlink:actuate="onLoad" cx="50%" id="id28" cy="50%" xlink:show="other"><stop stop-opacity="1.0" stop-color="#fffff0" offset="0%"/><stop stop-opacity="1.0" stop-color="#ffd0a2" offset="100%"/></radialGradient><radialGradient xmlns:xlink="http://www.w3.org/1999/xlink" xlink:type="simple" r="75%" xlink:actuate="onLoad" cx="50%" id="id29" cy="50%" xlink:show="other"><stop stop-opacity="1.0" stop-color="#9a6f03" offset="0%"/><stop stop-opacity="1.0" stop-color="#955b09" offset="100%"/></radialGradient><marker refX="14.0" refY="7.0" markerUnits="userSpaceOnUse" orient="auto" id="id31" markerHeight="14.0" viewBox="0 0 14.0 14.0" preserveAspectRatio="xMidYMid meet" markerWidth="14.0" overflow="visible"><path fill="none" d="M7.0 3.5 L14.0 7.0 L7.0 10.5" stroke-width="2.0" stroke-linejoin="round" stroke-linecap="round" stroke="#286bcc"/></marker><marker refX="14.0" refY="7.0" markerUnits="userSpaceOnUse" orient="auto" id="id32" markerHeight="14.0" viewBox="0 0 14.0 14.0" preserveAspectRatio="xMidYMid meet" markerWidth="14.0" overflow="visible"><path fill="none" d="M7.0 3.5 L14.0 7.0 L7.0 10.5" stroke-width="2.0" stroke-linejoin="round" stroke-linecap="round" stroke="#286bcc"/></marker><marker refX="14.0" refY="7.0" markerUnits="userSpaceOnUse" orient="auto" id="id33" markerHeight="14.0" viewBox="0 0 14.0 14.0" preserveAspectRatio="xMidYMid meet" markerWidth="14.0" overflow="visible"><path fill="none" d="M7.0 3.5 L14.0 7.0 L7.0 10.5" stroke-width="2.0" stroke-linejoin="round" stroke-linecap="round" stroke="#286bcc"/></marker><marker refX="14.0" refY="7.0" markerUnits="userSpaceOnUse" orient="auto" id="id39" markerHeight="14.0" viewBox="0 0 14.0 14.0" preserveAspectRatio="xMidYMid meet" markerWidth="14.0" overflow="visible"><path fill="none" d="M7.0 3.5 L14.0 7.0 L7.0 10.5" stroke-width="2.0" stroke-linejoin="round" stroke-linecap="round" stroke="#286bcc"/></marker><marker refX="14.0" refY="7.0" markerUnits="userSpaceOnUse" orient="auto" id="id40" markerHeight="14.0" viewBox="0 0 14.0 14.0" preserveAspectRatio="xMidYMid meet" markerWidth="14.0" overflow="visible"><path fill="none" d="M7.0 3.5 L14.0 7.0 L7.0 10.5" stroke-width="2.0" stroke-linejoin="round" stroke-linecap="round" stroke="#286bcc"/></marker><marker refX="14.0" refY="7.0" markerUnits="userSpaceOnUse" orient="auto" id="id42" markerHeight="14.0" viewBox="0 0 14.0 14.0" preserveAspectRatio="xMidYMid meet" markerWidth="14.0" overflow="visible"><path fill="none" d="M7.0 3.5 L14.0 7.0 L7.0 10.5" stroke-width="2.0" stroke-linejoin="round" stroke-linecap="round" stroke="#286bcc"/></marker><marker refX="14.0" refY="7.0" markerUnits="userSpaceOnUse" orient="auto" id="id44" markerHeight="14.0" viewBox="0 0 14.0 14.0" preserveAspectRatio="xMidYMid meet" markerWidth="14.0" overflow="visible"><path fill="none" d="M7.0 3.5 L14.0 7.0 L7.0 10.5" stroke-width="2.0" stroke-linejoin="round" stroke-linecap="round" stroke="#286bcc"/></marker><marker refX="14.0" refY="7.0" markerUnits="userSpaceOnUse" orient="auto" id="id45" markerHeight="14.0" viewBox="0 0 14.0 14.0" preserveAspectRatio="xMidYMid meet" markerWidth="14.0" overflow="visible"><path fill="none" d="M7.0 3.5 L14.0 7.0 L7.0 10.5" stroke-width="2.0" stroke-linejoin="round" stroke-linecap="round" stroke="#286bcc"/></marker><marker refX="14.0" refY="7.0" markerUnits="userSpaceOnUse" orient="auto" id="id46" markerHeight="14.0" viewBox="0 0 14.0 14.0" preserveAspectRatio="xMidYMid meet" markerWidth="14.0" overflow="visible"><path fill="none" d="M7.0 3.5 L14.0 7.0 L7.0 10.5" stroke-width="2.0" stroke-linejoin="round" stroke-linecap="round" stroke="#286bcc"/></marker><marker refX="14.0" refY="7.0" markerUnits="userSpaceOnUse" orient="auto" id="id48" markerHeight="14.0" viewBox="0 0 14.0 14.0" preserveAspectRatio="xMidYMid meet" markerWidth="14.0" overflow="visible"><path fill="none" d="M7.0 3.5 L14.0 7.0 L7.0 10.5" stroke-width="2.0" stroke-linejoin="round" stroke-linecap="round" stroke="#286bcc"/></marker><marker refX="14.0" refY="7.0" markerUnits="userSpaceOnUse" orient="auto" id="id50" markerHeight="14.0" viewBox="0 0 14.0 14.0" preserveAspectRatio="xMidYMid meet" markerWidth="14.0" overflow="visible"><path fill="none" d="M7.0 3.5 L14.0 7.0 L7.0 10.5" stroke-width="2.0" stroke-linejoin="round" stroke-linecap="round" stroke="#286bcc"/></marker><marker refX="14.0" refY="7.0" markerUnits="userSpaceOnUse" orient="auto" id="id51" markerHeight="14.0" viewBox="0 0 14.0 14.0" preserveAspectRatio="xMidYMid meet" markerWidth="14.0" overflow="visible"><path fill="none" d="M7.0 3.5 L14.0 7.0 L7.0 10.5" stroke-width="2.0" stroke-linejoin="round" stroke-linecap="round" stroke="#286bcc"/></marker><marker refX="14.0" refY="7.0" markerUnits="userSpaceOnUse" orient="auto" id="id55" markerHeight="14.0" viewBox="0 0 14.0 14.0" preserveAspectRatio="xMidYMid meet" markerWidth="14.0" overflow="visible"><path fill="none" d="M7.0 3.5 L14.0 7.0 L7.0 10.5" stroke-width="2.0" stroke-linejoin="round" stroke-linecap="round" stroke="#286bcc"/></marker><marker refX="14.0" refY="7.0" markerUnits="userSpaceOnUse" orient="auto" id="id56" markerHeight="14.0" viewBox="0 0 14.0 14.0" preserveAspectRatio="xMidYMid meet" markerWidth="14.0" overflow="visible"><path fill="none" d="M7.0 3.5 L14.0 7.0 L7.0 10.5" stroke-width="2.0" stroke-linejoin="round" stroke-linecap="round" stroke="#286bcc"/></marker><marker refX="14.0" refY="7.0" markerUnits="userSpaceOnUse" orient="auto" id="id57" markerHeight="14.0" viewBox="0 0 14.0 14.0" preserveAspectRatio="xMidYMid meet" markerWidth="14.0" overflow="visible"><path fill="none" d="M7.0 3.5 L14.0 7.0 L7.0 10.5" stroke-width="2.0" stroke-linejoin="round" stroke-linecap="round" stroke="#286bcc"/></marker><marker refX="14.0" refY="7.0" markerUnits="userSpaceOnUse" orient="auto" id="id58" markerHeight="14.0" viewBox="0 0 14.0 14.0" preserveAspectRatio="xMidYMid meet" markerWidth="14.0" overflow="visible"><path fill="none" d="M7.0 3.5 L14.0 7.0 L7.0 10.5" stroke-width="2.0" stroke-linejoin="round" stroke-linecap="round" stroke="#286bcc"/></marker><marker refX="14.0" refY="7.0" markerUnits="userSpaceOnUse" orient="auto" id="id60" markerHeight="14.0" viewBox="0 0 14.0 14.0" preserveAspectRatio="xMidYMid meet" markerWidth="14.0" overflow="visible"><path fill="none" d="M7.0 3.5 L14.0 7.0 L7.0 10.5" stroke-width="2.0" stroke-linejoin="round" stroke-linecap="round" stroke="#286bcc"/></marker><marker refX="14.0" refY="7.0" markerUnits="userSpaceOnUse" orient="auto" id="id63" markerHeight="14.0" viewBox="0 0 14.0 14.0" preserveAspectRatio="xMidYMid meet" markerWidth="14.0" overflow="visible"><path fill="none" d="M7.0 3.5 L14.0 7.0 L7.0 10.5" stroke-width="2.0" stroke-linejoin="round" stroke-linecap="round" stroke="#286bcc"/></marker><marker refX="14.0" refY="7.0" markerUnits="userSpaceOnUse" orient="auto" id="id65" markerHeight="14.0" viewBox="0 0 14.0 14.0" preserveAspectRatio="xMidYMid meet" markerWidth="14.0" overflow="visible"><path fill="none" d="M7.0 3.5 L14.0 7.0 L7.0 10.5" stroke-width="2.0" stroke-linejoin="round" stroke-linecap="round" stroke="#286bcc"/></marker><marker refX="14.0" refY="7.0" markerUnits="userSpaceOnUse" orient="auto" id="id67" markerHeight="14.0" viewBox="0 0 14.0 14.0" preserveAspectRatio="xMidYMid meet" markerWidth="14.0" overflow="visible"><path fill="none" d="M7.0 3.5 L14.0 7.0 L7.0 10.5" stroke-width="2.0" stroke-linejoin="round" stroke-linecap="round" stroke="#286bcc"/></marker><marker refX="14.0" refY="7.0" markerUnits="userSpaceOnUse" orient="auto" id="id69" markerHeight="14.0" viewBox="0 0 14.0 14.0" preserveAspectRatio="xMidYMid meet" markerWidth="14.0" overflow="visible"><path fill="none" d="M7.0 3.5 L14.0 7.0 L7.0 10.5" stroke-width="2.0" stroke-linejoin="round" stroke-linecap="round" stroke="#286bcc"/></marker><marker refX="14.0" refY="7.0" markerUnits="userSpaceOnUse" orient="auto" id="id70" markerHeight="14.0" viewBox="0 0 14.0 14.0" preserveAspectRatio="xMidYMid meet" markerWidth="14.0" overflow="visible"><path fill="none" d="M7.0 3.5 L14.0 7.0 L7.0 10.5" stroke-width="2.0" stroke-linejoin="round" stroke-linecap="round" stroke="#286bcc"/></marker><marker refX="14.0" refY="7.0" markerUnits="userSpaceOnUse" orient="auto" id="id71" markerHeight="14.0" viewBox="0 0 14.0 14.0" preserveAspectRatio="xMidYMid meet" markerWidth="14.0" overflow="visible"><path fill="none" d="M7.0 3.5 L14.0 7.0 L7.0 10.5" stroke-width="2.0" stroke-linejoin="round" stroke-linecap="round" stroke="#286bcc"/></marker><marker refX="14.0" refY="7.0" markerUnits="userSpaceOnUse" orient="auto" id="id72" markerHeight="14.0" viewBox="0 0 14.0 14.0" preserveAspectRatio="xMidYMid meet" markerWidth="14.0" overflow="visible"><path fill="none" d="M7.0 3.5 L14.0 7.0 L7.0 10.5" stroke-width="2.0" stroke-linejoin="round" stroke-linecap="round" stroke="#286bcc"/></marker></defs><g><g transform="translate(32.0 27.666666666666664)"><path fill="#e6d0de" fill-opacity="1.0" d="M347.4999999999993 68.0 L0.0 68.0 L0.0 0.0 L347.4999999999993 0.0 L347.4999999999993 68.0z" stroke-width="4.0" stroke-linejoin="round" stroke="#8856a1"/><g transform="translate(1.0 1.0)"><defs><clipPath id="id0"><path d="M0 0 L345.5000000000002 0 L345.5000000000002 66.0 L0 66.0z"/></clipPath></defs><text font-size="28" clip-path="url(#id0)" text-decoration="none" fill="#000000" font-family="Arial,Arial" font-style="normal" font-weight="bold"><tspan x="91.0" xml:space="preserve" y="42.5" textLength="163.0">Especialista</tspan></text></g></g><g transform="translate(379.5000000000002 27.666666666666657)"><path fill="#e6d0de" fill-opacity="1.0" d="M344.09594227284504 68.0 L0.0 68.0 L0.0 0.0 L344.09594227284504 0.0 L344.09594227284504 68.0z" stroke-width="4.0" stroke-linejoin="round" stroke="#8856a1"/><g transform="translate(1.0 1.0)"><defs><clipPath id="id1"><path d="M0 0 L342.0959422728449 0 L342.0959422728449 66.0 L0 66.0z"/></clipPath></defs><text font-size="28" clip-path="url(#id1)" text-decoration="none" fill="#000000" font-family="Arial,Arial" font-style="normal" font-weight="bold"><tspan x="135.0" xml:space="preserve" y="42.5" textLength="72.0">Tutor</tspan></text></g></g><g transform="translate(723.5959422728452 27.666666666666657)"><path fill="#e6d0de" fill-opacity="1.0" d="M342.00000000000017 68.0 L0.0 68.0 L0.0 0.0 L342.00000000000017 0.0 L342.00000000000017 68.0z" stroke-width="4.0" stroke-linejoin="round" stroke="#8856a1"/><g transform="translate(1.0 1.0)"><defs><clipPath id="id2"><path d="M0 0 L339.9999999999998 0 L339.9999999999998 66.0 L0 66.0z"/></clipPath></defs><text font-size="28" clip-path="url(#id2)" text-decoration="none" fill="#000000" font-family="Arial,Arial" font-style="normal" font-weight="bold"><tspan x="112.0" xml:space="preserve" y="42.5" textLength="116.0">Paciente</tspan></text></g></g><g transform="translate(32.0 95.66666666666666)"><path fill="#ffffff" fill-opacity="1.0" d="M1033.5959422728438 1605.6666666666642 L0.0 1605.6666666666642 L0.0 0.0 L1033.5959422728438 0.0 L1033.5959422728438 1605.6666666666642z" stroke-width="1.0" stroke-linejoin="round" stroke="#6a2c89"/><g transform="translate(1.0 1.0)"><defs><clipPath id="id3"><path d="M0 0 L1031.595942272845 0 L1031.595942272845 1603.666666666664 L0 1603.666666666664z"/></clipPath></defs><text font-size="12" clip-path="url(#id3)" text-decoration="none" fill="#000000" font-family="Arial,Arial" font-style="normal" font-weight="normal"/></g></g><g transform="translate(32.0 95.66666666666663)"><path fill="#ffffff" fill-opacity="1.0" d="M1033.5959422728454 1605.66666666666 L0.0 1605.66666666666 L0.0 0.0 L1033.5959422728454 0.0 L1033.5959422728454 1605.66666666666z" stroke-width="4.0" stroke-linejoin="round" stroke="#6a2c89"/><g transform="translate(1.0 1.0)"><defs><clipPath id="id4"><path d="M0 0 L1031.595942272845 0 L1031.595942272845 1603.6666666666642 L0 1603.6666666666642z"/></clipPath></defs><text font-size="12" clip-path="url(#id4)" text-decoration="none" fill="#000000" font-family="Arial,Arial" font-style="normal" font-weight="normal"/></g></g><g transform="translate(205.7500000000001 124.33333333333329)"><path fill="#d4e1f5" fill-opacity="1.0" d="M688.8459422728466 48.000000000000014 Q688.8459422728466 53.000000000000014 683.8459422728466 53.000000000000014 L5.0 53.000000000000014 Q0.0 53.000000000000014 0.0 48.000000000000014 L0.0 5.0 Q0.0 0.0 5.0 0.0 L683.8459422728466 0.0 Q688.8459422728466 0.0 688.8459422728466 5.0 L688.8459422728466 48.000000000000014 L688.8459422728466 48.000000000000014z" stroke-width="2.0" stroke-linejoin="round" stroke="#5389d6"/><g transform="translate(1.0 1.0)"><defs><clipPath id="id5"><path d="M0 0 L686.8459422728449 0 L686.8459422728449 50.99999999999997 L0 50.99999999999997z"/></clipPath></defs><text font-size="18" clip-path="url(#id5)" text-decoration="none" fill="#000000" font-family="Arial,Arial" font-style="normal" font-weight="bold"><tspan x="315.0" xml:space="preserve" y="31.999999999999986" textLength="57.0">LOGIN</tspan></text></g></g><g transform="translate(57.746166666666795 37.188166666666675)"><path fill="url(#id6)" d="M6.07 43.265999 Q6.07 37.572598 10.1137503 33.548874 Q14.157652 29.524998 19.880001 29.524998 Q25.603304 29.524998 29.651251000000002 33.548874 Q33.700001 37.573544 33.700001 43.265999 Q33.700001 45.95377 29.382813 47.534813 Q25.497345 48.957747999999995 19.885002 48.957747999999995 Q14.272658 48.957747999999995 10.387188 47.534813 Q6.070001430511501 45.95377 6.070001430511501 43.265999 L6.07 43.265999z" stroke-width="1.0" stroke-linejoin="round" stroke="#5a5a5a"/><path fill="#ffffff" fill-opacity="1.0" d="M20.155001 30.139998907348602 L15.745001 37.601997 L19.929001 44.160995 L24.565001000000002 37.601997 L20.156000300000002 30.139997 L20.155001 30.139998907348602z" stroke-width="1.0" stroke-linejoin="round" stroke="#323232"/><path fill="#b4b4b4" fill-opacity="1.0" d="M30.0 36.955 Q30.5625 38.0175 31.09375 39.29875 Q32.15625 41.86125 32.0 42.955 Q31.77404 44.53673 29.25 45.79875 Q26.256466 47.295514999999995 22.0 46.955 Q23.082500500000002 46.789998999999995 24.4987507 46.332499 Q27.331249 45.417502 29.0 43.955 Q30.25 42.86125 30.25 39.79875 Q30.25 38.841718799999995 30.125 37.80265625 Q30.0625 37.283125 30.0 36.955 L30.0 36.955z" stroke="none"/><path fill="#8bcaea" fill-opacity="1.0" d="M23.209 40.655998 L20.721001299999998 37.2629966 L22.3230005 35.6799964 L19.817 32.626995 L17.78200017 35.452995200000004 L19.3650004 37.2629966 L17.008 40.655998 L20.1749998 44.160999000000004 L23.210999 40.655998 L23.209 40.655998z" stroke-width="1.0" stroke-linejoin="round" stroke="#5a5a5a"/><path fill="url(#id7)" d="M16.4439994507 38.7529994507 L20.0389988 40.2839977 L23.767999000000003 39.017998840000004 L19.839000000000002 44.0119983 L16.443 38.752 L16.4439994507 38.7529994507z" stroke-width="1.0" stroke-linejoin="round" stroke="#5a5a5a"/><path fill="url(#id8)" d="M27.840000000000003 31.955001799999998 L19.92 28.538002 L12.0000002 31.955001799999998 Q11.675482 34.367416399999996 16.75 37.377003 L19.92 34.663002 L23.09 37.377003 Q26.545 35.8926277 27.538 33.775379 Q28.0345 32.716751 27.840000000000003 31.955001799999998 L27.840000000000003 31.955001799999998z" stroke-width="1.0" stroke-linejoin="round" stroke="#5a5a5a"/><path fill="url(#id9)" d="M19.9290005 44.160999000000004 L14.4840011 31.062 L12.1090011 32.174999 L11.0910015 37.375999 L14.4830017 37.715 L13.1260013 39.75 L19.9280015 44.160000000000004 L19.9290005 44.160999000000004z" stroke-width="1.0" stroke-linejoin="round" stroke="#5a5a5a"/><path fill="url(#id10)" d="M20.042999358 44.160999000000004 L25.487999 31.062 L27.8619996 32.174999 L28.879998999999998 37.375999 L25.487999 37.715 L26.843998 39.75 L20.041998 44.160000000000004 L20.042999358 44.160999000000004z" stroke-width="1.0" stroke-linejoin="round" stroke="#5a5a5a"/><path fill="url(#id11)" d="M0.0 20.955 Q0.0 16.955 4.0 16.955 Q8.0 16.955 8.0 20.955 Q8.0 24.955 4.0 24.955 Q0.0 24.955 0.0 20.955 L0.0 20.955z" stroke-width="1.0" stroke-linejoin="round" stroke="#ffd0a2"/><path fill="url(#id12)" d="M31.0 20.955 Q31.0 16.955 35.0 16.955 Q39.0 16.955 39.0 20.955 Q39.0 24.955 35.0 24.955 Q31.0 24.955 31.0 20.955 L31.0 20.955z" stroke-width="1.0" stroke-linejoin="round" stroke="#ffd0a2"/><path fill="url(#id13)" d="M4.0 18.6450015 Q4.0 12.2091445 8.495000000000001 7.6575012000000005 Q12.990848 3.1050005 19.35 3.1050005 Q25.709154 3.1050005 30.205002 7.6575005 Q34.7 12.209142499999999 34.7 18.6450015 Q34.7 25.0809525 30.205002 29.633000499999998 Q25.70906 34.1860015 19.35 34.1860015 Q12.99094 34.1860015 8.494999 29.633000499999998 Q4.0 25.0809525 4.0 18.6450015 L4.0 18.6450015z" stroke-width="1.0" stroke-linejoin="round" stroke="#ffd0a2"/><path fill="#ffc28d" fill-opacity="1.0" d="M9.278999953674301 28.506 Q9.278999953674301 29.4932875 12.37275 31.381 Q15.855388300000001 33.506 19.028999 33.506 Q23.091499 33.506 25.966499 31.756 Q27.403999 30.881 28.028999 30.006 Q27.763374 30.131 27.286811 30.3145938 Q26.333686999999998 30.6817812 25.278999 30.97475 Q21.903999 31.91225 18.778999 31.756 Q14.531444 31.5468897 9.278999 28.506 L9.278999953674301 28.506z" stroke="none"/><path fill="#323232" fill-opacity="1.0" d="M10.0070002 19.271000700000002 Q10.0070002 20.0450009 9.1250002 20.0450009 L4.0560002399999995 20.0450009 Q3.1750002 20.0450009 3.1750002 19.271000700000002 Q3.1750002 18.498 4.0560002399999995 18.498 L9.1250002 18.498 Q10.0070002 18.498 10.0070002 19.271000700000002 L10.0070002 19.271000700000002z" stroke-width="1.0" stroke-linejoin="round" stroke="#323232"/><path fill="#323232" fill-opacity="1.0" d="M36.0950007 19.271000700000002 Q36.0950007 20.0450009 35.212001300000004 20.0450009 L30.1440005 20.0450009 Q29.263 20.0450009 29.263 19.271000700000002 Q29.263 18.498 30.1440005 18.498 L35.212001300000004 18.498 Q36.0950007 18.498 36.0950007 19.271000700000002 L36.0950007 19.271000700000002z" stroke-width="1.0" stroke-linejoin="round" stroke="#323232"/><path fill="#323232" fill-opacity="1.0" d="M22.962999 19.271000700000002 Q22.962999 20.0450009 22.0799994 20.0450009 L17.0120005 20.0450009 Q16.131 20.0450009 16.131 19.271000700000002 Q16.131 18.498 17.0120005 18.498 L22.0800013 18.498 Q22.963000700000002 18.498 22.963000700000002 19.271000700000002 L22.962999 19.271000700000002z" stroke-width="1.0" stroke-linejoin="round" stroke="#323232"/><path fill="#ffffff" fill-opacity="1.0" d="M16.958 20.108 Q16.958 24.619999 12.446 24.619999 Q7.934 24.619999 7.934 20.107998000000002 Q7.934 15.595997 12.446 15.595997 Q16.958 15.595997 16.958 20.107998000000002 L16.958 20.108z" stroke-width="1.0" stroke-linejoin="round" stroke="#323232"/><path fill="#ffffff" fill-opacity="1.0" d="M30.891 20.108 Q30.891 24.619999 26.379001000000002 24.619999 Q21.867 24.619999 21.867 20.107998000000002 Q21.867 15.595997 26.379001000000002 15.595997 Q30.891002 15.595997 30.891002 20.107998000000002 L30.891 20.108z" stroke-width="1.0" stroke-linejoin="round" stroke="#323232"/><path fill="#ffffff" fill-opacity="1.0" d="M19.297000399999998 0.0 Q12.6849384 0.0 7.8341254 4.926875142 Q3.0860004 9.749451642 3.0860004 16.048000642 Q3.0860004 16.375428642 3.145000415 17.134000642 Q3.4480004 17.093000642 3.45000048 17.072000642 Q4.2922792 9.735114642000001 11.6590004 6.325000642 Q13.3507004 9.320000642 19.059000400000002 9.320000642 Q24.9034004 9.320000642 26.5050004 6.226000642 Q34.2898674 9.862672642 35.098000400000004 17.132998642 Q35.5079974 16.335857642 35.5079974 16.046998642 Q35.5079974 9.748607642 30.7601244 4.925874642 Q25.9097254 -0.001001358 19.2990004 -0.001001358 L19.297000399999998 0.0z" stroke-width="1.0" stroke-linejoin="round" stroke="#969696"/><path fill="none" d="M4.271 20.302 Q4.271 27.0055007 4.271 33.709 Q4.271 36.633793 6.558999999999999 37.217499000000004 Q8.916397 37.818909 9.924 34.039001 Q10.1990777 32.984539 10.687999999999999 32.752003" stroke-width="1.0" stroke-linejoin="round" stroke="#323232"/><path fill="#ffffff" fill-opacity="1.0" d="M18.896999 27.148001 Q17.0279155 24.928984 14.439999 27.2620013 Q13.600225 28.018492 13.0208735 29.169127 Q12.8401017 29.528153 12.5703902 30.1626743 Q12.2708707 30.8673175 12.13799906 31.146002 Q11.52199889 32.439003299999996 11.276999 32.360001 Q11.9893117 32.314499 12.9987645 32.1761897 Q15.017671 31.899563 16.5033736 31.4355014 Q21.257625 29.950501 18.896999 27.148001 L18.896999 27.148001z" stroke-width="1.0" stroke-linejoin="round" stroke="#969696"/><path fill="#ffffff" fill-opacity="1.0" d="M20.6229992 27.148001 Q22.4920826 24.928984 25.079998 27.2620013 Q25.9192105 28.018555 26.498749 29.169127 Q26.679695000000002 29.5283645 26.949467 30.1626743 Q27.249365 30.8678153 27.381998 31.146002 Q27.997996999999998 32.439003299999996 28.242998 32.360001 Q27.530685 32.314499 26.521233000000002 32.1761897 Q24.502325 31.899563 23.016622599999998 31.4355014 Q18.262373 29.950501 20.6229973 27.148001 L20.6229992 27.148001z" stroke-width="1.0" stroke-linejoin="round" stroke="#969696"/><path fill="url(#id14)" d="M22.746000000000002 24.969 Q22.746000000000002 28.365000000000002 19.35 28.365000000000002 Q15.954 28.365000000000002 15.954 24.969 Q15.954 21.573 19.35 21.573 Q22.746000000000002 21.573 22.746000000000002 24.969 L22.746000000000002 24.969z" stroke-width="1.0" stroke-linejoin="round" stroke="#ffd0a2"/></g><g transform="translate(436.0 37.30566666666667)"><path fill="url(#id15)" d="M6.07 40.689998 Q6.07 34.996596999999994 10.1137503 30.972873 Q14.157652 26.948997 19.880001 26.948997 Q25.603304 26.948997 29.651251000000002 30.972873 Q33.700001 34.997543 33.700001 40.689998 Q33.700001 43.377769 29.38297 44.958811999999995 Q25.497643 46.381747 19.885502000000002 46.381747 Q14.27336 46.381747 10.388031000000002 44.958811999999995 Q6.071000881200001 43.377769 6.071000881200001 40.689998 L6.07 40.689998z" stroke-width="1.0" stroke-linejoin="round" stroke="#c8c8c8"/><path fill="#ffffff" fill-opacity="1.0" d="M30.0 34.38 Q30.5625 35.4425 31.09375 36.72375 Q32.15625 39.28625 32.0 40.38 Q31.774006 41.9610585 29.25 43.222876 Q26.256298 44.719504 22.0 44.379001 Q23.082500500000002 44.214 24.4987507 43.756625 Q27.331249 42.841876 29.0 41.38 Q30.25 40.28625 30.25 37.22375 Q30.25 36.2667188 30.125 35.22765625 Q30.0625 34.708125 30.0 34.38 L30.0 34.38z" stroke="none"/><path fill="#92c9ff" fill-opacity="1.0" d="M23.2089997 46.217999000000006 L20.7210007 34.688999700000004 L22.708000000000002 32.876 L19.816000000000003 30.053 L17.24300006 32.5550008 L19.362999000000002 34.689999 L17.007 46.218998 L20.1739998 48.723 L23.2089997 46.218998 L23.2089997 46.217999000000006z" stroke-width="1.0" stroke-linejoin="round" stroke="#424a70"/><path fill="url(#id16)" d="M27.839999999999996 29.3799993 L19.92 25.962 L11.99999975 29.3799993 Q11.675184 31.7922364 16.749999799999998 34.801998 L19.92 32.086998 L23.09 34.801998 Q26.544376 33.3176232 27.537624 31.200373 Q28.03425 30.1417485 27.839999999999996 29.3799974 L27.839999999999996 29.3799993z" stroke-width="1.0" stroke-linejoin="round" stroke="#c8c8c8"/><path fill="url(#id17)" d="M0.0 18.378999999999998 Q0.0 14.379 4.0 14.379 Q8.0 14.379 8.0 18.378999999999998 Q8.0 22.378999999999998 4.0 22.378999999999998 Q0.0 22.378999999999998 0.0 18.378999999999998 L0.0 18.378999999999998z" stroke-width="1.0" stroke-linejoin="round" stroke="#ffd0a2"/><path fill="url(#id18)" d="M31.0 18.378999999999998 Q31.0 14.379 35.0 14.379 Q39.0 14.379 39.0 18.378999999999998 Q39.0 22.378999999999998 35.0 22.378999999999998 Q31.0 22.378999999999998 31.0 18.378999999999998 L31.0 18.378999999999998z" stroke-width="1.0" stroke-linejoin="round" stroke="#ffd0a2"/><path fill="url(#id19)" d="M4.0 16.07000073 Q4.0 9.63414373 8.495000000000001 5.0825004300000005 Q12.990848 0.52999973 19.35 0.52999973 Q25.709154 0.52999973 30.205002 5.08249973 Q34.7 9.63414073 34.7 16.07000073 Q34.7 22.50595173 30.205002 27.05799973 Q25.70906 31.61100073 19.35 31.61100073 Q12.99111 31.61100073 8.494999 27.05762573 Q4.0 22.50537573 4.0 16.07000073 L4.0 16.07000073z" stroke-width="1.0" stroke-linejoin="round" stroke="#ffd0a2"/><path fill="#ffc28d" fill-opacity="1.0" d="M9.278999953674301 25.931 Q9.278999953674301 26.9182875 12.37275 28.806 Q15.855388300000001 30.931 19.028999 30.931 Q23.091499 30.931 25.966499 29.181 Q27.403999 28.306 28.028999 27.431 Q27.763374 27.556 27.286811 27.7395938 Q26.333686999999998 28.1067812 25.278999 28.39975 Q21.903999 29.33725 18.778999 29.181 Q14.528976 28.9704611 9.278999 25.931 L9.278999953674301 25.931z" stroke="none"/><path fill="url(#id20)" d="M19.35 0.0 Q13.321996 0.0 8.813749999999999 4.13875 Q4.20823845 8.366794 4.09 14.36 Q5.00807127 14.189713 6.493594 13.7231245 Q8.7768343 13.005981 10.85375 12.002501 Q13.630605 10.660837 15.684531999999999 8.965626 Q18.203478 6.88661 19.5 4.38 Q19.958123999999998 4.973125 20.767984 5.885625 Q22.387703 7.7106247 24.146374 9.3075 Q26.608515 11.543124 28.996828 13.003125 Q31.982219999999998 14.828124 34.681 15.33 Q34.828617 9.06195 30.176374 4.49625 Q25.594896 0.0 19.35 0.0 L19.35 0.0z" stroke-width="1.0" stroke-linejoin="round" stroke="#532600"/></g><g transform="translate(760.5039422728448 40.64216666666667)"><path fill="url(#id21)" d="M8.292 22.297001 Q8.292 26.443001000000002 4.146 26.443001000000002 Q0.0 26.443001000000002 0.0 22.297001 Q0.0 18.151001 4.146 18.151001 Q8.292 18.151001 8.292 22.297001 L8.292 22.297001z" stroke-width="1.0" stroke-linejoin="round" stroke="#814700"/><path fill="url(#id22)" d="M37.092 22.297001 Q37.092 26.443001000000002 32.946 26.443001000000002 Q28.8 26.443001000000002 28.8 22.297001 Q28.8 18.151001 32.946 18.151001 Q37.092 18.151001 37.092 22.297001 L37.092 22.297001z" stroke-width="1.0" stroke-linejoin="round" stroke="#814700"/><path fill="url(#id23)" d="M6.757 37.221001 Q6.757 32.392258 10.1870003 28.979252000000002 Q13.617242999999998 25.566002 18.471001 25.566002 Q23.324848000000003 25.566002 26.758125 28.979252000000002 Q30.192000999999998 32.393097 30.192000999999998 37.221001 Q30.192000999999998 39.501125 26.530282999999997 40.842377 Q23.234737000000003 42.0495 18.474503 42.0495 Q13.714265999999999 42.0495 10.4187203 40.842377 Q6.7570019073486 39.501125 6.7570019073486 37.221001 L6.757 37.221001z" stroke-width="1.0" stroke-linejoin="round" stroke="#f0518a"/><path fill="#ffc2dc" fill-opacity="1.0" d="M27.055 31.869 Q27.532249 32.770001 27.982875399999998 33.8566251 Q28.884124 36.029877 28.750999 36.9580007 Q28.176141299999998 40.981999 20.27 40.351002 Q21.18824913 40.211003 22.389625 39.8230024 Q24.792375 39.0470014 26.2079997 37.8070035 Q27.267999 36.879502 27.267999 34.2815023 Q27.267999 32.9825025 27.0559993 31.8690038146973 L27.055 31.869z" stroke="none"/><path fill="url(#id24)" d="M18.2810005 37.928001 L24.261 37.928001 L23.940001000000002 28.067001 L18.4750007 28.380000730000003 L13.010000549999999 28.067001 L12.688001 37.928001 L18.2810005 37.928001 L18.2810005 37.928001z" stroke-width="1.0" stroke-linejoin="round" stroke="#ff518a"/><path fill="url(#id25)" d="M26.488999999999997 27.641999300000002 L18.568 24.224 L10.648999750000002 27.641999300000002 Q10.324184 30.0542364 15.3989998 33.063998 L18.568 30.348998 L21.739 33.063998 Q25.193374 31.5796232 26.186626 29.462373 Q26.68325 28.4037485 26.488999999999997 27.6419974 L26.488999999999997 27.641999300000002z" stroke-width="1.0" stroke-linejoin="round" stroke="#c8c8c8"/><path fill="url(#id26)" d="M1.935 18.2970006 Q1.935 14.904001 5.328000100000001 14.904001 Q8.721 14.904001 8.721 18.2970006 Q8.721 21.6900003 5.328000100000001 21.6900003 Q1.93500023841858 21.6900003 1.93500023841858 18.2970006 L1.935 18.2970006z" stroke-width="1.0" stroke-linejoin="round" stroke="#ffd0a2"/><path fill="url(#id27)" d="M28.229 18.2970006 Q28.229 14.904001 31.622001599999997 14.904001 Q35.015003 14.904001 35.015003 18.2970006 Q35.015003 21.6900003 31.622001599999997 21.6900003 Q28.2290019073486 21.6900003 28.2290019073486 18.2970006 L28.229 18.2970006z" stroke-width="1.0" stroke-linejoin="round" stroke="#ffd0a2"/><path fill="url(#id28)" d="M5.327999953674301 16.3379992 Q5.327999953674301 10.8787232 9.140625 7.017749800000001 Q12.954017499999999 3.1559992 18.347999 3.1559992 Q23.741981000000003 3.1559992 27.555374 7.0177488 Q31.367998999999998 10.8787232 31.367998999999998 16.3379992 Q31.367998999999998 21.7967002 27.555374 25.6578762 Q23.741812000000003 29.5200012 18.347999 29.5200012 Q12.954187300000001 29.5200012 9.140624 25.6578762 Q5.327999 21.7967002 5.327999 16.3380012 L5.327999953674301 16.3379992z" stroke-width="1.0" stroke-linejoin="round" stroke="#ffd0a2"/><path fill="#ffc28d" fill-opacity="1.0" d="M9.806 24.7019994507 Q9.806 25.53988817 12.4301245 27.1408746 Q15.383929499999999 28.9430006 18.076 28.9430006 Q21.521 28.9430006 23.9595 27.4584997 Q25.178749 26.716251200000002 25.709 25.9740007 Q24.807749 26.398000500000002 23.376499 26.7955015 Q20.514 27.590499700000002 17.864001000000002 27.458000000000002 Q14.2577603 27.2788008 9.8060009536743 24.701 L9.806 24.7019994507z" stroke="none"/><path fill="url(#id29)" d="M18.3439998 0.0 Q12.253828799999999 0.0 7.9475002 4.213875 Q3.6409998 8.427916 3.6409998 14.388 Q3.6409998 14.771447 5.231 14.148999 Q5.7179938 14.421 6.6009998 14.421 Q8.5806998 14.421 8.9039993 12.724999 Q8.9579992 12.7055 9.0119991 12.686 Q9.5354978 14.101 11.2479992 14.101 Q13.532107799999999 14.101 13.5969988 12.129 Q13.9973738 13.726999 15.8959998 13.726999 Q17.952028300000002 13.726999 18.2199993 11.962999 Q18.486196800000002 13.726999 20.5429998 13.726999 Q22.4423758 13.726999 22.8429998 12.127999 Q22.9025128 14.101 25.1909998 14.101 Q26.9119238 14.101 27.4279988 12.674 Q27.3429078 12.642909 27.583996799999998 12.728 Q27.912014799999998 14.421 29.8989998 14.421 Q30.723477799999998 14.421 31.2569968 14.174 Q33.0459988 14.881753 33.0459988 14.388 Q33.0459988 8.4284935 28.7394998 4.2142496 Q24.4329918 0.0 18.3429988 0.0 L18.3439998 0.0z" stroke-width="1.0" stroke-linejoin="round" stroke="#814700"/></g><g transform="translate(459.45202886357765 214.12966666666674)"><path fill="#d7ffed" fill-opacity="1.0" d="M45.363189231167475 43.358 L-1.1268763699945339E-14 21.678 L45.363189231167475 0.0 L136.08231944084912 0.0 L181.4418845456899 21.678 L136.08231944084912 43.358 L45.363189231167475 43.358 L45.363189231167475 43.358z" stroke-width="2.0" stroke-linejoin="round" stroke="#5389d6"/><g transform="translate(40.76417215886927 0.39899998903274536)"><defs><clipPath id="id30"><path d="M0 0 L99.79031785238674 0 L99.79031785238674 42.55400085449219 L0 42.55400085449219z"/></clipPath></defs><text font-size="18" clip-path="url(#id30)" text-decoration="none" fill="#000000" font-family="Arial,Arial" font-style="normal" font-weight="bold"><tspan x="17.0" xml:space="preserve" y="27.777000427246094" textLength="66.0">Válido?</tspan></text></g></g><path fill="none" marker-end="url(#id31)" d="M550.1729711364235 177.33333333333331 L550.1729711364226 214.12966666666674" stroke-width="2.0" stroke-linejoin="round" stroke="#286bcc"/><path fill="none" marker-end="url(#id32)" d="M550.1729711364226 257.4876666666667 L550.172971136423 296.5" stroke-width="2.0" stroke-linejoin="round" stroke="#286bcc"/><path fill="none" marker-end="url(#id33)" d="M640.8939134092675 235.80766666666673 L934.9292756061801 235.80766666666673 Q944.9292756061801 235.80766666666673 944.9292756061801 225.80766666666673 L944.9292756061801 160.8333333333333 Q944.9292756061801 150.8333333333333 934.9292756061801 150.8333333333333 L894.5959422728467 150.8333333333333" stroke-width="2.0" stroke-linejoin="round" stroke="#286bcc"/><g transform="translate(559.875 268.16666666666674)"><defs><clipPath id="id34"><path d="M0 0 L42.0 0 L42.0 16.0 L0 16.0z"/></clipPath></defs><text font-size="18" clip-path="url(#id34)" text-decoration="none" fill="#000000" font-family="Arial,Arial" font-style="normal" font-weight="bold"><tspan x="4.0" xml:space="preserve" y="14.5" textLength="34.0">Sim</tspan></text></g><g transform="translate(648.5959422728449 214.12966666666674)"><defs><clipPath id="id35"><path d="M0 0 L42.0 0 L42.0 16.0 L0 16.0z"/></clipPath></defs><text font-size="18" clip-path="url(#id35)" text-decoration="none" fill="#000000" font-family="Arial,Arial" font-style="normal" font-weight="bold"><tspan x="4.0" xml:space="preserve" y="14.5" textLength="34.0">Não</tspan></text></g><g transform="translate(205.7500000000001 296.5)"><path fill="#d4e1f5" fill-opacity="1.0" d="M688.8459422728458 48.000000000000014 Q688.8459422728458 53.000000000000014 683.8459422728458 53.000000000000014 L5.0 53.000000000000014 Q0.0 53.000000000000014 0.0 48.000000000000014 L0.0 5.0 Q0.0 0.0 5.0 0.0 L683.8459422728458 0.0 Q688.8459422728458 0.0 688.8459422728458 5.0 L688.8459422728458 48.000000000000014 L688.8459422728458 48.000000000000014z" stroke-width="2.0" stroke-linejoin="round" stroke="#5389d6"/><g transform="translate(1.0 1.0)"><defs><clipPath id="id36"><path d="M0 0 L686.8459422728449 0 L686.8459422728449 51.0 L0 51.0z"/></clipPath></defs><text font-size="18" clip-path="url(#id36)" text-decoration="none" fill="#000000" font-family="Arial,Arial" font-style="normal" font-weight="bold"><tspan x="316.0" xml:space="preserve" y="32.0" textLength="54.0">HOME</tspan></text></g></g><g transform="translate(205.7500000000001 386.6666666666666)"><path fill="#d7ffed" fill-opacity="1.0" d="M345.79797113642366 48.000000000000014 Q345.79797113642366 53.000000000000014 340.79797113642366 53.000000000000014 L5.0 53.000000000000014 Q0.0 53.000000000000014 0.0 48.000000000000014 L0.0 5.0 Q0.0 0.0 5.0 0.0 L340.79797113642366 0.0 Q345.79797113642366 0.0 345.79797113642366 5.0 L345.79797113642366 48.000000000000014 L345.79797113642366 48.000000000000014z" stroke-width="2.0" stroke-linejoin="round" stroke="#5389d6"/><g transform="translate(1.0 1.0)"><defs><clipPath id="id37"><path d="M0 0 L343.7979711364227 0 L343.7979711364227 50.99999999999994 L0 50.99999999999994z"/></clipPath></defs><text font-size="18" clip-path="url(#id37)" text-decoration="none" fill="#000000" font-family="Arial,Arial" font-style="normal" font-weight="bold"><tspan x="89.0" xml:space="preserve" y="31.99999999999997" textLength="166.0">ACEITAR CONVITE</tspan></text></g></g><g transform="translate(807.3392565768189 386.6666666666666)"><path fill="#d7ffed" fill-opacity="1.0" d="M177.2633713920534 48.000000000000014 Q177.2633713920534 53.000000000000014 172.2633713920534 53.000000000000014 L5.0 53.000000000000014 Q0.0 53.000000000000014 0.0 48.000000000000014 L0.0 5.0 Q0.0 0.0 5.0 0.0 L172.2633713920534 0.0 Q177.2633713920534 0.0 177.2633713920534 5.0 L177.2633713920534 48.000000000000014 L177.2633713920534 48.000000000000014z" stroke-width="2.0" stroke-linejoin="round" stroke="#5389d6"/><g transform="translate(1.0 1.0)"><defs><clipPath id="id38"><path d="M0 0 L175.2633713920527 0 L175.2633713920527 50.99999999999994 L0 50.99999999999994z"/></clipPath></defs><text font-size="18" clip-path="url(#id38)" text-decoration="none" fill="#000000" font-family="Arial,Arial" font-style="normal" font-weight="bold"><tspan x="10.0" xml:space="preserve" y="31.99999999999997" textLength="155.0">ENVIAR CONVITE</tspan></text></g></g><path fill="none" marker-end="url(#id39)" d="M205.7500000000001 323.0 L162.7500000000001 323.0 Q152.7500000000001 323.0 152.7500000000001 333.0 L152.7500000000001 403.1666666666666 Q152.7500000000001 413.1666666666666 162.7500000000001 413.1666666666666 L205.7500000000001 413.1666666666666" stroke-width="2.0" stroke-linejoin="round" stroke="#286bcc"/><path fill="none" marker-end="url(#id40)" d="M894.595942272846 323.0 L1015.6026279688722 323.0 Q1025.6026279688722 323.0 1025.6026279688722 333.0 L1025.6026279688722 403.1666666666666 Q1025.6026279688722 413.1666666666666 1015.6026279688722 413.1666666666666 L984.6026279688723 413.1666666666666" stroke-width="2.0" stroke-linejoin="round" stroke="#286bcc"/><g transform="translate(207.12500000000023 567.4999999999998)"><path fill="#d4e1f5" fill-opacity="1.0" d="M688.8459422728457 48.000000000000014 Q688.8459422728457 53.000000000000014 683.8459422728457 53.000000000000014 L5.0 53.000000000000014 Q0.0 53.000000000000014 0.0 48.000000000000014 L0.0 5.0 Q0.0 0.0 5.0 0.0 L683.8459422728457 0.0 Q688.8459422728457 0.0 688.8459422728457 5.0 L688.8459422728457 48.000000000000014 L688.8459422728457 48.000000000000014z" stroke-width="2.0" stroke-linejoin="round" stroke="#5389d6"/><g transform="translate(1.0 1.0)"><defs><clipPath id="id41"><path d="M0 0 L686.8459422728449 0 L686.8459422728449 51.000000000000114 L0 51.000000000000114z"/></clipPath></defs><text font-size="18" clip-path="url(#id41)" text-decoration="none" fill="#000000" font-family="Arial,Arial" font-style="normal" font-weight="bold"><tspan x="303.0" xml:space="preserve" y="32.00000000000006" textLength="80.0">BUILDER</tspan></text></g></g><path fill="none" marker-end="url(#id42)" d="M205.7500000000001 323.0 L162.7500000000001 323.0 Q152.7500000000001 323.0 152.7500000000001 333.0 L152.7500000000001 583.9999999999998 Q152.7500000000001 593.9999999999998 162.7500000000001 593.9999999999998 L207.12500000000023 593.9999999999998" stroke-width="2.0" stroke-linejoin="round" stroke="#286bcc"/><g transform="translate(205.7500000000001 700.0000000000001)"><path fill="#cce3df" fill-opacity="1.0" d="M688.8459422728472 48.000000000000014 Q688.8459422728472 53.000000000000014 683.8459422728472 53.000000000000014 L5.0 53.000000000000014 Q0.0 53.000000000000014 0.0 48.000000000000014 L0.0 5.0 Q0.0 0.0 5.0 0.0 L683.8459422728472 0.0 Q688.8459422728472 0.0 688.8459422728472 5.0 L688.8459422728472 48.000000000000014 L688.8459422728472 48.000000000000014z" stroke-width="2.0" stroke-linejoin="round" stroke="#5389d6"/><g transform="translate(1.0 1.0)"><defs><clipPath id="id43"><path d="M0 0 L686.8459422728449 0 L686.8459422728449 51.0 L0 51.0z"/></clipPath></defs><text font-size="18" clip-path="url(#id43)" text-decoration="none" fill="#000000" font-family="Arial,Arial" font-style="normal" font-weight="bold"><tspan x="284.0" xml:space="preserve" y="32.0" textLength="119.0">USAR PLANO</tspan></text></g></g><path fill="none" marker-end="url(#id44)" d="M551.547971136423 620.4999999999998 L551.547971136423 650.25 Q551.547971136423 660.25 541.547971136423 660.25 L162.7500000000001 660.25 Q152.7500000000001 660.25 152.7500000000001 670.25 L152.7500000000001 716.5000000000001 Q152.7500000000001 726.5000000000001 162.7500000000001 726.5000000000001 L205.7500000000001 726.5000000000001" stroke-width="2.0" stroke-linejoin="round" stroke="#286bcc"/><path fill="none" marker-end="url(#id45)" d="M807.3392565768189 413.1666666666666 L732.3844567046345 413.1666666666666 Q722.3844567046345 413.1666666666666 722.3844567046345 403.1666666666666 L722.3844567046345 349.5" stroke-width="2.0" stroke-linejoin="round" stroke="#286bcc"/><path fill="none" marker-end="url(#id46)" d="M551.5479711364237 413.1666666666666 L566.5479711364237 413.1666666666666 Q576.5479711364237 413.1666666666666 576.5479711364237 403.1666666666666 L576.5479711364237 378.08333333333326 Q576.5479711364237 368.08333333333326 566.5479711364237 368.08333333333326 L560.172971136423 368.08333333333326 Q550.172971136423 368.08333333333326 550.172971136423 358.79166666666663 L550.172971136423 349.5" stroke-width="2.0" stroke-linejoin="round" stroke="#286bcc"/><g transform="translate(205.7500000000001 792.0000000000001)"><path fill="#d4e1f5" fill-opacity="1.0" d="M688.8459422728478 48.000000000000014 Q688.8459422728478 53.000000000000014 683.8459422728478 53.000000000000014 L5.0 53.000000000000014 Q0.0 53.000000000000014 0.0 48.000000000000014 L0.0 5.0 Q0.0 0.0 5.0 0.0 L683.8459422728478 0.0 Q688.8459422728478 0.0 688.8459422728478 5.0 L688.8459422728478 48.000000000000014 L688.8459422728478 48.000000000000014z" stroke-width="2.0" stroke-linejoin="round" stroke="#5389d6"/><g transform="translate(1.0 1.0)"><defs><clipPath id="id47"><path d="M0 0 L686.8459422728449 0 L686.8459422728449 51.0 L0 51.0z"/></clipPath></defs><text font-size="18" clip-path="url(#id47)" text-decoration="none" fill="#000000" font-family="Arial,Arial" font-style="normal" font-weight="bold"><tspan x="270.0" xml:space="preserve" y="32.0" textLength="146.0">USAR PRANCHA</tspan></text></g></g><path fill="none" marker-end="url(#id48)" d="M550.1729711364237 753.0000000000001 L550.1729711364239 792.0000000000001" stroke-width="2.0" stroke-linejoin="round" stroke="#286bcc"/><g transform="translate(205.7500000000001 477.3333333333334)"><path fill="#d7ffed" fill-opacity="1.0" d="M688.8459422728457 48.000000000000014 Q688.8459422728457 53.000000000000014 683.8459422728457 53.000000000000014 L5.0 53.000000000000014 Q0.0 53.000000000000014 0.0 48.000000000000014 L0.0 5.0 Q0.0 0.0 5.0 0.0 L683.8459422728457 0.0 Q688.8459422728457 0.0 688.8459422728457 5.0 L688.8459422728457 48.000000000000014 L688.8459422728457 48.000000000000014z" stroke-width="2.0" stroke-linejoin="round" stroke="#5389d6"/><g transform="translate(1.0 1.0)"><defs><clipPath id="id49"><path d="M0 0 L686.8459422728449 0 L686.8459422728449 51.00000000000006 L0 51.00000000000006z"/></clipPath></defs><text font-size="18" clip-path="url(#id49)" text-decoration="none" fill="#000000" font-family="Arial,Arial" font-style="normal" font-weight="bold"><tspan x="217.0" xml:space="preserve" y="32.00000000000003" textLength="253.0">ALTERAR DADOS PESSOAIS</tspan></text></g></g><path fill="none" marker-end="url(#id50)" d="M205.7500000000001 323.0 L162.7500000000001 323.0 Q152.7500000000001 323.0 152.7500000000001 333.0 L152.7500000000001 493.8333333333334 Q152.7500000000001 503.8333333333334 162.7500000000001 503.8333333333334 L205.7500000000001 503.8333333333334" stroke-width="2.0" stroke-linejoin="round" stroke="#286bcc"/><path fill="none" marker-end="url(#id51)" d="M550.172971136423 477.3333333333334 L550.172971136423 466.0833333333334 Q550.172971136423 456.0833333333334 560.172971136423 456.0833333333334 L712.3844567046345 456.0833333333334 Q722.3844567046345 456.0833333333334 722.3844567046345 446.0833333333334 L722.3844567046345 349.5" stroke-width="2.0" stroke-linejoin="round" stroke="#286bcc"/><g transform="translate(205.7500000000001 884.0000000000001)"><path fill="#d7ffed" fill-opacity="1.0" d="M344.42297113642354 48.000000000000014 Q344.42297113642354 53.000000000000014 339.42297113642354 53.000000000000014 L5.0 53.000000000000014 Q0.0 53.000000000000014 0.0 48.000000000000014 L0.0 5.0 Q0.0 0.0 5.0 0.0 L339.42297113642354 0.0 Q344.42297113642354 0.0 344.42297113642354 5.0 L344.42297113642354 48.000000000000014 L344.42297113642354 48.000000000000014z" stroke-width="2.0" stroke-linejoin="round" stroke="#5389d6"/><g transform="translate(1.0 1.0)"><defs><clipPath id="id52"><path d="M0 0 L342.42297113642246 0 L342.42297113642246 51.0 L0 51.0z"/></clipPath></defs><text font-size="18" clip-path="url(#id52)" text-decoration="none" fill="#000000" font-family="Arial,Arial" font-style="normal" font-weight="bold"><tspan x="95.0" xml:space="preserve" y="32.0" textLength="152.0">CRIAR PRANCHA</tspan></text></g></g><g transform="translate(205.7500000000001 1425.3333333333333)"><path fill="#d7ffed" fill-opacity="1.0" d="M344.42297113642354 48.000000000000014 Q344.42297113642354 53.000000000000014 339.42297113642354 53.000000000000014 L5.0 53.000000000000014 Q0.0 53.000000000000014 0.0 48.000000000000014 L0.0 5.0 Q0.0 0.0 5.0 0.0 L339.42297113642354 0.0 Q344.42297113642354 0.0 344.42297113642354 5.0 L344.42297113642354 48.000000000000014 L344.42297113642354 48.000000000000014z" stroke-width="2.0" stroke-linejoin="round" stroke="#5389d6"/><g transform="translate(1.0 1.0)"><defs><clipPath id="id53"><path d="M0 0 L342.42297113642246 0 L342.42297113642246 51.00000000000023 L0 51.00000000000023z"/></clipPath></defs><text font-size="18" clip-path="url(#id53)" text-decoration="none" fill="#000000" font-family="Arial,Arial" font-style="normal" font-weight="bold"><tspan x="100.0" xml:space="preserve" y="32.000000000000114" textLength="141.0">OBSERVAÇÕES</tspan></text></g></g><g transform="translate(205.7500000000001 1517.3333333333335)"><path fill="#d7ffed" fill-opacity="1.0" d="M344.42297113642354 48.000000000000014 Q344.42297113642354 53.000000000000014 339.42297113642354 53.000000000000014 L5.0 53.000000000000014 Q0.0 53.000000000000014 0.0 48.000000000000014 L0.0 5.0 Q0.0 0.0 5.0 0.0 L339.42297113642354 0.0 Q344.42297113642354 0.0 344.42297113642354 5.0 L344.42297113642354 48.000000000000014 L344.42297113642354 48.000000000000014z" stroke-width="2.0" stroke-linejoin="round" stroke="#5389d6"/><g transform="translate(1.0 1.0)"><defs><clipPath id="id54"><path d="M0 0 L342.42297113642246 0 L342.42297113642246 51.00000000000023 L0 51.00000000000023z"/></clipPath></defs><text font-size="18" clip-path="url(#id54)" text-decoration="none" fill="#000000" font-family="Arial,Arial" font-style="normal" font-weight="bold"><tspan x="120.0" xml:space="preserve" y="32.000000000000114" textLength="102.0">NOVA OBS.</tspan></text></g></g><path fill="none" marker-end="url(#id55)" d="M551.547971136423 620.4999999999998 L551.547971136423 650.2500000000001 Q551.547971136423 660.2500000000001 541.547971136423 660.2500000000001 L162.7500000000001 660.2500000000001 Q152.7500000000001 660.2500000000001 152.7500000000001 670.2500000000001 L152.7500000000001 900.5000000000001 Q152.7500000000001 910.5000000000001 162.7500000000001 910.5000000000001 L205.7500000000001 910.5000000000001" stroke-width="2.0" stroke-linejoin="round" stroke="#286bcc"/><path fill="none" marker-end="url(#id56)" d="M551.547971136423 620.4999999999998 L551.547971136423 650.2499999999998 Q551.547971136423 660.2499999999998 541.547971136423 660.2499999999998 L162.7500000000001 660.2499999999998 Q152.7500000000001 660.2499999999998 152.7500000000001 670.2499999999998 L152.7500000000001 1084.5 Q152.7500000000001 1094.5 162.7500000000001 1094.5 L205.7500000000001 1094.5" stroke-width="2.0" stroke-linejoin="round" stroke="#286bcc"/><path fill="none" marker-end="url(#id57)" d="M551.547971136423 620.4999999999998 L551.547971136423 650.2500000000002 Q551.547971136423 660.2500000000002 541.547971136423 660.2500000000002 L162.7500000000001 660.2500000000002 Q152.7500000000001 660.2500000000002 152.7500000000001 670.2500000000002 L152.7500000000001 1441.8333333333333 Q152.7500000000001 1451.8333333333333 162.7500000000001 1451.8333333333333 L205.7500000000001 1451.8333333333333" stroke-width="2.0" stroke-linejoin="round" stroke="#286bcc"/><path fill="none" marker-end="url(#id58)" d="M551.547971136423 620.4999999999998 L551.547971136423 650.2500000000007 Q551.547971136423 660.2500000000007 541.547971136423 660.2500000000007 L162.7500000000001 660.2500000000007 Q152.7500000000001 660.2500000000007 152.7500000000001 670.2500000000007 L152.7500000000001 1623.1666666666663 Q152.7500000000001 1633.1666666666663 162.7500000000001 1633.1666666666663 L205.7500000000001 1633.1666666666663" stroke-width="2.0" stroke-linejoin="round" stroke="#286bcc"/><g transform="translate(205.7500000000001 1606.6666666666663)"><path fill="#d7ffed" fill-opacity="1.0" d="M344.42297113642354 48.000000000000014 Q344.42297113642354 53.000000000000014 339.42297113642354 53.000000000000014 L5.0 53.000000000000014 Q0.0 53.000000000000014 0.0 48.000000000000014 L0.0 5.0 Q0.0 0.0 5.0 0.0 L339.42297113642354 0.0 Q344.42297113642354 0.0 344.42297113642354 5.0 L344.42297113642354 48.000000000000014 L344.42297113642354 48.000000000000014z" stroke-width="2.0" stroke-linejoin="round" stroke="#5389d6"/><g transform="translate(1.0 1.0)"><defs><clipPath id="id59"><path d="M0 0 L342.42297113642246 0 L342.42297113642246 51.00000000000023 L0 51.00000000000023z"/></clipPath></defs><text font-size="18" clip-path="url(#id59)" text-decoration="none" fill="#000000" font-family="Arial,Arial" font-style="normal" font-weight="bold"><tspan x="99.0" xml:space="preserve" y="32.000000000000114" textLength="144.0">LOG/HISTÓRICO</tspan></text></g></g><path fill="none" marker-end="url(#id60)" d="M377.96148556821186 1478.3333333333333 L377.96148556821186 1517.3333333333335" stroke-width="2.0" stroke-linejoin="round" stroke="#286bcc"/><g transform="translate(205.7500000000001 1068.0)"><path fill="#d7ffed" fill-opacity="1.0" d="M344.42297113642354 48.000000000000014 Q344.42297113642354 53.000000000000014 339.42297113642354 53.000000000000014 L5.0 53.000000000000014 Q0.0 53.000000000000014 0.0 48.000000000000014 L0.0 5.0 Q0.0 0.0 5.0 0.0 L339.42297113642354 0.0 Q344.42297113642354 0.0 344.42297113642354 5.0 L344.42297113642354 48.000000000000014 L344.42297113642354 48.000000000000014z" stroke-width="2.0" stroke-linejoin="round" stroke="#5389d6"/><g transform="translate(1.0 1.0)"><defs><clipPath id="id61"><path d="M0 0 L342.42297113642246 0 L342.42297113642246 51.00000000000023 L0 51.00000000000023z"/></clipPath></defs><text font-size="18" clip-path="url(#id61)" text-decoration="none" fill="#000000" font-family="Arial,Arial" font-style="normal" font-weight="bold"><tspan x="70.0" xml:space="preserve" y="32.000000000000114" textLength="201.0">REUTILIZAR PRANCHA</tspan></text></g></g><g transform="translate(311.4614855682113 972.6666666666667)"><path fill="#ffe599" fill-opacity="1.0" d="M133.00000000000017 30.999999999999947 Q133.00000000000017 43.84000531999991 113.52348000000016 52.919789999999885 Q94.04602900000012 61.99999999999989 66.50000000000009 61.99999999999989 Q38.95503500000005 61.99999999999989 19.477520958000028 52.92025375999991 Q0.0 43.84050999999991 0.0 30.999999999999947 Q0.0 18.15948999999997 19.47751829800003 9.079746611999981 Q38.95503500000005 0.0 66.50000000000009 0.0 Q94.04649982000014 0.0 113.52348000000016 9.079745371999982 Q133.00000000000017 18.15927671999997 133.00000000000017 30.999999999999947 L133.00000000000017 30.999999999999947z" stroke-width="1.0" stroke-linejoin="round" stroke="#000000"/><g transform="translate(18.412519817352315 9.871640548706035)"><defs><clipPath id="id62"><path d="M0 0 L96.18559959411633 0 L96.18559959411633 41.97151947021476 L0 41.97151947021476z"/></clipPath></defs><text font-size="18" clip-path="url(#id62)" text-decoration="none" fill="#000000" font-family="Arial,Arial" font-style="normal" font-weight="bold"><tspan x="3.0" xml:space="preserve" y="27.48575973510738" textLength="90.0">PRANCHA</tspan></text></g></g><path fill="none" marker-end="url(#id63)" d="M377.96148556821186 937.0000000000001 L377.9614855682114 972.6666666666667" stroke-width="2.0" stroke-linejoin="round" stroke="#286bcc"/><g transform="translate(205.7500000000001 1158.6666666666665)"><path fill="#d7ffed" fill-opacity="1.0" d="M344.42297113642354 48.000000000000014 Q344.42297113642354 53.000000000000014 339.42297113642354 53.000000000000014 L5.0 53.000000000000014 Q0.0 53.000000000000014 0.0 48.000000000000014 L0.0 5.0 Q0.0 0.0 5.0 0.0 L339.42297113642354 0.0 Q344.42297113642354 0.0 344.42297113642354 5.0 L344.42297113642354 48.000000000000014 L344.42297113642354 48.000000000000014z" stroke-width="2.0" stroke-linejoin="round" stroke="#5389d6"/><g transform="translate(1.0 1.0)"><defs><clipPath id="id64"><path d="M0 0 L342.42297113642246 0 L342.42297113642246 51.00000000000023 L0 51.00000000000023z"/></clipPath></defs><text font-size="18" clip-path="url(#id64)" text-decoration="none" fill="#000000" font-family="Arial,Arial" font-style="normal" font-weight="bold"><tspan x="44.0" xml:space="preserve" y="32.000000000000114" textLength="254.0">FILTRAR (TODOS/PACIENTE)</tspan></text></g></g><path fill="none" marker-end="url(#id65)" d="M377.96148556821186 1121.0 L377.96148556821186 1158.6666666666665" stroke-width="2.0" stroke-linejoin="round" stroke="#286bcc"/><g transform="translate(205.7500000000001 1247.9999999999998)"><path fill="#d7ffed" fill-opacity="1.0" d="M344.42297113642354 48.000000000000014 Q344.42297113642354 53.000000000000014 339.42297113642354 53.000000000000014 L5.0 53.000000000000014 Q0.0 53.000000000000014 0.0 48.000000000000014 L0.0 5.0 Q0.0 0.0 5.0 0.0 L339.42297113642354 0.0 Q344.42297113642354 0.0 344.42297113642354 5.0 L344.42297113642354 48.000000000000014 L344.42297113642354 48.000000000000014z" stroke-width="2.0" stroke-linejoin="round" stroke="#5389d6"/><g transform="translate(1.0 1.0)"><defs><clipPath id="id66"><path d="M0 0 L342.42297113642246 0 L342.42297113642246 51.00000000000023 L0 51.00000000000023z"/></clipPath></defs><text font-size="18" clip-path="url(#id66)" text-decoration="none" fill="#000000" font-family="Arial,Arial" font-style="normal" font-weight="bold"><tspan x="77.0" xml:space="preserve" y="32.000000000000114" textLength="187.0">ESCOLHER O PLANO</tspan></text></g></g><path fill="none" marker-end="url(#id67)" d="M377.96148556821186 1211.6666666666665 L377.96148556821186 1247.9999999999998" stroke-width="2.0" stroke-linejoin="round" stroke="#286bcc"/><g transform="translate(205.7500000000001 1337.333333333333)"><path fill="#d7ffed" fill-opacity="1.0" d="M344.42297113642354 48.000000000000014 Q344.42297113642354 53.000000000000014 339.42297113642354 53.000000000000014 L5.0 53.000000000000014 Q0.0 53.000000000000014 0.0 48.000000000000014 L0.0 5.0 Q0.0 0.0 5.0 0.0 L339.42297113642354 0.0 Q344.42297113642354 0.0 344.42297113642354 5.0 L344.42297113642354 48.000000000000014 L344.42297113642354 48.000000000000014z" stroke-width="2.0" stroke-linejoin="round" stroke="#5389d6"/><g transform="translate(1.0 1.0)"><defs><clipPath id="id68"><path d="M0 0 L342.42297113642246 0 L342.42297113642246 51.00000000000023 L0 51.00000000000023z"/></clipPath></defs><text font-size="18" clip-path="url(#id68)" text-decoration="none" fill="#000000" font-family="Arial,Arial" font-style="normal" font-weight="bold"><tspan x="64.0" xml:space="preserve" y="32.000000000000114" textLength="213.0">ESCOLHER A PRANCHA</tspan></text></g></g><path fill="none" marker-end="url(#id69)" d="M377.96148556821186 1300.9999999999998 L377.96148556821186 1337.333333333333" stroke-width="2.0" stroke-linejoin="round" stroke="#286bcc"/><path fill="none" marker-end="url(#id70)" d="M550.1729711364237 1363.833333333333 L622.5063044697571 1363.833333333333 Q632.5063044697571 1363.833333333333 632.5063044697571 1353.833333333333 L632.5063044697571 1013.6666666666667 Q632.5063044697571 1003.6666666666667 622.5063044697571 1003.6666666666667 L444.46148556821146 1003.6666666666667" stroke-width="2.0" stroke-linejoin="round" stroke="#286bcc"/><path fill="none" marker-end="url(#id71)" d="M424.98408651711685 981.7463564498837 L910.9709422728458 981.7463564498837 Q920.9709422728458 981.7463564498837 920.9709422728458 971.7463564498837 L920.9709422728458 603.9999999999998 Q920.9709422728458 593.9999999999998 910.9709422728458 593.9999999999998 L895.970942272846 593.9999999999998" stroke-width="2.0" stroke-linejoin="round" stroke="#286bcc"/><path fill="none" marker-end="url(#id72)" d="M550.1729711364237 1543.8333333333335 L623.8396378030905 1543.8333333333335 Q633.8396378030905 1543.8333333333335 633.8396378030905 1533.8333333333335 L633.8396378030905 1461.8333333333333 Q633.8396378030905 1451.8333333333333 623.8396378030905 1451.8333333333333 L550.1729711364237 1451.8333333333333" stroke-width="2.0" stroke-linejoin="round" stroke="#286bcc"/><g transform="translate(669.5959422728449 1094.5)"><path fill="#ffffff" fill-opacity="1.0" d="M210.73739106048828 0.0 Q215.73739106048828 0.0 215.73739106048828 5.0 L215.73739106048828 128.50000000000009 Q215.73739106048828 133.50000000000009 210.73739106048828 133.50000000000009 L5.0 133.50000000000009 Q0.0 133.50000000000009 0.0 128.50000000000009 L0.0 75.85034567800514 L-34.66666666666663 74.50000000000009 L0.0 69.34675841318318 L0.0 5.0 Q0.0 0.0 5.0 0.0 L210.73739106048828 0.0 L210.73739106048828 0.0z" stroke-width="2.0" stroke-linejoin="round" stroke="#ffbf00"/><g transform="translate(4.314747821209764 4.306451612903229)"><defs><clipPath id="id73"><path d="M0 0 L207.1078954180686 0 L207.1078954180686 124.88709677419357 L0 124.88709677419357z"/></clipPath></defs><text font-size="18" clip-path="url(#id73)" text-decoration="none" fill="#000000" font-family="Arial,Arial" font-style="normal" font-weight="normal"><tspan x="2.0" xml:space="preserve" y="37.44354838709678" textLength="208.0">Vai para a tela de criação </tspan><tspan x="15.0" xml:space="preserve" y="58.44354838709678" textLength="181.0">da prancha, já com os </tspan><tspan x="20.0" xml:space="preserve" y="79.44354838709678" textLength="171.0">símbolos da prancha </tspan><tspan x="13.0" xml:space="preserve" y="100.44354838709678" textLength="181.0">escolhida, carregados.</tspan></text></g></g></g></svg>